<svg width="226" height="217" viewBox="0 0 226 217" fill="none" xmlns="http://www.w3.org/2000/svg">
<g filter="url(#filter0_dd_132_14)">
<rect x="4" width="218" height="209" rx="30" fill="#6AA9EA"/>
<path d="M136 135H86V75H136V80H146V60C146 54.5 141.5 50 136 50H86C80.5 50 76 54.5 76 60V150C76 155.5 80.5 160 86 160H136C141.5 160 146 155.5 146 150V130H136V135ZM152.9 93.1L154.9 97.45C155.35 98.45 156.75 98.45 157.2 97.45L159.2 93.1L163.55 91.1C164.55 90.65 164.55 89.25 163.55 88.8L159.2 86.8L157.2 82.45C156.75 81.45 155.35 81.45 154.9 82.45L152.9 86.8L148.55 88.8C147.55 89.25 147.55 90.65 148.55 91.1L152.9 93.1Z" fill="#F8F8F8"/>
<path d="M128.7 89.9999L124.75 98.7499L116 102.7C115.564 102.899 115.193 103.219 114.934 103.622C114.675 104.026 114.537 104.495 114.537 104.975C114.537 105.455 114.675 105.924 114.934 106.327C115.193 106.731 115.564 107.051 116 107.25L124.75 111.2L128.7 120C128.899 120.436 129.219 120.806 129.622 121.066C130.026 121.325 130.495 121.463 130.975 121.463C131.455 121.463 131.924 121.325 132.328 121.066C132.731 120.806 133.051 120.436 133.25 120L137.2 111.25L146 107.3C146.436 107.101 146.807 106.781 147.066 106.377C147.326 105.974 147.463 105.505 147.463 105.025C147.463 104.545 147.326 104.076 147.066 103.672C146.807 103.269 146.436 102.949 146 102.75L137.25 98.7999L133.3 89.9999C133.095 89.5629 132.77 89.1932 132.363 88.9342C131.955 88.6753 131.483 88.5377 131 88.5377C130.517 88.5377 130.045 88.6753 129.637 88.9342C129.23 89.1932 128.905 89.5629 128.7 89.9999ZM154.85 112.5L152.85 116.85L148.5 118.85C147.5 119.3 147.5 120.7 148.5 121.15L152.85 123.15L154.85 127.5C155.3 128.5 156.7 128.5 157.15 127.5L159.15 123.15L163.5 121.15C164.5 120.7 164.5 119.3 163.5 118.85L159.15 116.85L157.15 112.5C157.043 112.286 156.879 112.106 156.676 111.981C156.473 111.855 156.239 111.788 156 111.788C155.761 111.788 155.527 111.855 155.324 111.981C155.121 112.106 154.957 112.286 154.85 112.5Z" fill="#F8F8F8"/>
</g>
<defs>
<filter id="filter0_dd_132_14" x="0" y="0" width="226" height="217" filterUnits="userSpaceOnUse" color-interpolation-filters="sRGB">
<feFlood flood-opacity="0" result="BackgroundImageFix"/>
<feColorMatrix in="SourceAlpha" type="matrix" values="0 0 0 0 0 0 0 0 0 0 0 0 0 0 0 0 0 0 127 0" result="hardAlpha"/>
<feOffset dy="4"/>
<feGaussianBlur stdDeviation="2"/>
<feComposite in2="hardAlpha" operator="out"/>
<feColorMatrix type="matrix" values="0 0 0 0 0 0 0 0 0 0 0 0 0 0 0 0 0 0 0.25 0"/>
<feBlend mode="normal" in2="BackgroundImageFix" result="effect1_dropShadow_132_14"/>
<feColorMatrix in="SourceAlpha" type="matrix" values="0 0 0 0 0 0 0 0 0 0 0 0 0 0 0 0 0 0 127 0" result="hardAlpha"/>
<feOffset dy="4"/>
<feGaussianBlur stdDeviation="2"/>
<feComposite in2="hardAlpha" operator="out"/>
<feColorMatrix type="matrix" values="0 0 0 0 0 0 0 0 0 0 0 0 0 0 0 0 0 0 0.25 0"/>
<feBlend mode="normal" in2="effect1_dropShadow_132_14" result="effect2_dropShadow_132_14"/>
<feBlend mode="normal" in="SourceGraphic" in2="effect2_dropShadow_132_14" result="shape"/>
</filter>
</defs>
</svg>
