<svg width="226" height="217" viewBox="0 0 226 217" fill="none" xmlns="http://www.w3.org/2000/svg">
<g filter="url(#filter0_dd_132_12)">
<rect x="4" width="218" height="209" rx="30" fill="#6AA9EA"/>
<path d="M147.25 87L126 65.75L133.125 58.625C135.042 56.7083 137.397 55.75 140.19 55.75C142.983 55.75 145.337 56.7083 147.25 58.625L154.375 65.75C156.292 67.6667 157.25 70.0217 157.25 72.815C157.25 75.6083 156.292 77.9617 154.375 79.875L147.25 87ZM68 145V123.75L90.5 101.25L64.125 74.625L87.75 51L114.25 77.625L119 72.875L140.25 94L135.5 98.75L161.875 125.375L138.375 148.875L111.75 122.375L89.25 145H68ZM97.625 94.125L107.125 84.625L101.125 78.625L95.125 84.5L88.125 77.5L94 71.5L87.625 65.25L78.25 74.75L97.625 94.125ZM138.25 134.75L147.75 125.25L141.375 119L135.5 124.875L128.375 117.875L134.375 111.875L128.25 105.875L118.75 115.375L138.25 134.75Z" fill="#F8F8F8"/>
</g>
<defs>
<filter id="filter0_dd_132_12" x="0" y="0" width="226" height="217" filterUnits="userSpaceOnUse" color-interpolation-filters="sRGB">
<feFlood flood-opacity="0" result="BackgroundImageFix"/>
<feColorMatrix in="SourceAlpha" type="matrix" values="0 0 0 0 0 0 0 0 0 0 0 0 0 0 0 0 0 0 127 0" result="hardAlpha"/>
<feOffset dy="4"/>
<feGaussianBlur stdDeviation="2"/>
<feComposite in2="hardAlpha" operator="out"/>
<feColorMatrix type="matrix" values="0 0 0 0 0 0 0 0 0 0 0 0 0 0 0 0 0 0 0.25 0"/>
<feBlend mode="normal" in2="BackgroundImageFix" result="effect1_dropShadow_132_12"/>
<feColorMatrix in="SourceAlpha" type="matrix" values="0 0 0 0 0 0 0 0 0 0 0 0 0 0 0 0 0 0 127 0" result="hardAlpha"/>
<feOffset dy="4"/>
<feGaussianBlur stdDeviation="2"/>
<feComposite in2="hardAlpha" operator="out"/>
<feColorMatrix type="matrix" values="0 0 0 0 0 0 0 0 0 0 0 0 0 0 0 0 0 0 0.25 0"/>
<feBlend mode="normal" in2="effect1_dropShadow_132_12" result="effect2_dropShadow_132_12"/>
<feBlend mode="normal" in="SourceGraphic" in2="effect2_dropShadow_132_12" result="shape"/>
</filter>
</defs>
</svg>
