<svg width="226" height="217" viewBox="0 0 226 217" fill="none" xmlns="http://www.w3.org/2000/svg">
<g filter="url(#filter0_dd_132_13)">
<rect x="4" width="218" height="209" rx="30" fill="#6AA9EA"/>
<path d="M160.091 94.3484C142.361 95.3353 125.309 101.234 111 111.33C96.6911 101.234 79.6392 95.3353 61.9091 94.3484V109.844C59.011 109.849 56.2338 110.959 54.1881 112.929C52.1424 114.899 50.9957 117.569 51 120.35V125.606C51 131.411 61.9091 137.164 61.9091 137.164V147.671C76.3964 148.565 90.368 153.175 102.365 161.019C105.395 163.037 108.279 165.248 111 167.636C113.721 165.248 116.605 163.037 119.635 161.019C131.632 153.175 145.604 148.565 160.091 147.671V136.112C162.989 136.106 165.766 134.997 167.812 133.026C169.858 131.056 171.004 128.387 171 125.606V120.35C171.004 117.569 169.858 114.899 167.812 112.929C165.766 110.959 162.989 109.849 160.091 109.844V94.3484ZM111 154.141C99.6872 146.184 86.6261 140.819 72.8182 138.457V106.263C83.4004 108.309 93.4477 112.371 102.365 118.209C105.395 120.226 108.279 122.437 111 124.826C113.721 122.437 116.605 120.226 119.635 118.209C128.552 112.369 138.599 108.305 149.182 106.258V138.457C135.374 140.819 122.313 146.184 111 154.141ZM105.545 83.8787H116.455V89.1136H105.545V83.8787ZM105.545 62.9393H116.455V68.1742H105.545V62.9393Z" fill="#F8F8F8"/>
<path d="M105.546 94.3486H116.455V99.5834H105.546V94.3486ZM94.6365 68.1743C96.0831 68.1743 97.4705 67.6228 98.4934 66.6411C99.5164 65.6593 100.091 64.3278 100.091 62.9395C100.096 62.2575 99.9599 61.5814 99.6903 60.9505C99.4207 60.3195 99.0232 59.7462 98.5207 59.264C98.0183 58.7818 97.421 58.4003 96.7635 58.1415C96.1061 57.8828 95.4016 57.7521 94.691 57.757C93.9783 57.7535 93.2719 57.8849 92.612 58.1434C91.9522 58.402 91.3519 58.7828 90.8454 59.264C89.8225 60.236 89.2437 61.558 89.2365 62.9395C89.2293 64.3209 89.7941 65.6485 90.8068 66.6302C91.8195 67.6119 93.1971 68.1674 94.6365 68.1743Z" fill="#F8F8F8"/>
<path d="M127.364 68.1743C130.376 68.1743 132.818 65.8306 132.818 62.9394C132.818 60.0483 130.376 57.7046 127.364 57.7046C124.351 57.7046 121.909 60.0483 121.909 62.9394C121.909 65.8306 124.351 68.1743 127.364 68.1743Z" fill="#F8F8F8"/>
<path d="M132.818 83.8788H89.1818C84.8432 83.8746 80.6836 82.2187 77.6157 79.2744C74.5479 76.3302 72.8225 72.3381 72.8182 68.1742V57.7045C72.8225 53.5407 74.5479 49.5486 77.6157 46.6043C80.6836 43.6601 84.8432 42.0042 89.1818 42H132.818C137.157 42.0042 141.316 43.6601 144.384 46.6043C147.452 49.5486 149.177 53.5407 149.182 57.7045V68.1742C149.177 72.3381 147.452 76.3302 144.384 79.2744C141.316 82.2187 137.157 83.8746 132.818 83.8788ZM89.1818 52.4697C87.7356 52.4711 86.3491 53.0231 85.3265 54.0045C84.3038 54.9859 83.7287 56.3166 83.7273 57.7045V68.1742C83.7287 69.5622 84.3038 70.8929 85.3265 71.8743C86.3491 72.8557 87.7356 73.4077 89.1818 73.4091H132.818C134.264 73.4077 135.651 72.8557 136.674 71.8743C137.696 70.8929 138.271 69.5622 138.273 68.1742V57.7045C138.271 56.3166 137.696 54.9859 136.674 54.0045C135.651 53.0231 134.264 52.4711 132.818 52.4697H89.1818Z" fill="#F8F8F8"/>
</g>
<defs>
<filter id="filter0_dd_132_13" x="0" y="0" width="226" height="217" filterUnits="userSpaceOnUse" color-interpolation-filters="sRGB">
<feFlood flood-opacity="0" result="BackgroundImageFix"/>
<feColorMatrix in="SourceAlpha" type="matrix" values="0 0 0 0 0 0 0 0 0 0 0 0 0 0 0 0 0 0 127 0" result="hardAlpha"/>
<feOffset dy="4"/>
<feGaussianBlur stdDeviation="2"/>
<feComposite in2="hardAlpha" operator="out"/>
<feColorMatrix type="matrix" values="0 0 0 0 0 0 0 0 0 0 0 0 0 0 0 0 0 0 0.25 0"/>
<feBlend mode="normal" in2="BackgroundImageFix" result="effect1_dropShadow_132_13"/>
<feColorMatrix in="SourceAlpha" type="matrix" values="0 0 0 0 0 0 0 0 0 0 0 0 0 0 0 0 0 0 127 0" result="hardAlpha"/>
<feOffset dy="4"/>
<feGaussianBlur stdDeviation="2"/>
<feComposite in2="hardAlpha" operator="out"/>
<feColorMatrix type="matrix" values="0 0 0 0 0 0 0 0 0 0 0 0 0 0 0 0 0 0 0.25 0"/>
<feBlend mode="normal" in2="effect1_dropShadow_132_13" result="effect2_dropShadow_132_13"/>
<feBlend mode="normal" in="SourceGraphic" in2="effect2_dropShadow_132_13" result="shape"/>
</filter>
</defs>
</svg>
