<svg width="226" height="217" viewBox="0 0 226 217" fill="none" xmlns="http://www.w3.org/2000/svg">
<g filter="url(#filter0_dd_132_15)">
<rect x="4" width="218" height="209" rx="30" fill="#6AA9EA"/>
<path d="M150.114 49H167.257V65.4524H150.114V49ZM150.114 73.6786H167.257V90.131H150.114V73.6786ZM124.4 49H141.543V65.4524H124.4V49ZM124.4 73.6786H141.543V90.131H124.4V73.6786Z" fill="#F8F8F8"/>
<path d="M161.429 101.957V126.636H58.5714V60.8262H110V52.6H58.5714C56.2981 52.6 54.118 53.4667 52.5105 55.0094C50.9031 56.5521 50 58.6444 50 60.8262V126.636C50 128.817 50.9031 130.91 52.5105 132.452C54.118 133.995 56.2981 134.862 58.5714 134.862H92.8571V151.314H75.7143V159.54H144.286V151.314H127.143V134.862H161.429C163.702 134.862 165.882 133.995 167.489 132.452C169.097 130.91 170 128.817 170 126.636V101.957H161.429ZM118.571 151.314H101.429V134.862H118.571V151.314Z" fill="#F8F8F8"/>
</g>
<defs>
<filter id="filter0_dd_132_15" x="0" y="0" width="226" height="217" filterUnits="userSpaceOnUse" color-interpolation-filters="sRGB">
<feFlood flood-opacity="0" result="BackgroundImageFix"/>
<feColorMatrix in="SourceAlpha" type="matrix" values="0 0 0 0 0 0 0 0 0 0 0 0 0 0 0 0 0 0 127 0" result="hardAlpha"/>
<feOffset dy="4"/>
<feGaussianBlur stdDeviation="2"/>
<feComposite in2="hardAlpha" operator="out"/>
<feColorMatrix type="matrix" values="0 0 0 0 0 0 0 0 0 0 0 0 0 0 0 0 0 0 0.25 0"/>
<feBlend mode="normal" in2="BackgroundImageFix" result="effect1_dropShadow_132_15"/>
<feColorMatrix in="SourceAlpha" type="matrix" values="0 0 0 0 0 0 0 0 0 0 0 0 0 0 0 0 0 0 127 0" result="hardAlpha"/>
<feOffset dy="4"/>
<feGaussianBlur stdDeviation="2"/>
<feComposite in2="hardAlpha" operator="out"/>
<feColorMatrix type="matrix" values="0 0 0 0 0 0 0 0 0 0 0 0 0 0 0 0 0 0 0.25 0"/>
<feBlend mode="normal" in2="effect1_dropShadow_132_15" result="effect2_dropShadow_132_15"/>
<feBlend mode="normal" in="SourceGraphic" in2="effect2_dropShadow_132_15" result="shape"/>
</filter>
</defs>
</svg>
